<svg xmlns="http://www.w3.org/2000/svg" width="20.489" height="22.427" viewBox="0 0 20.489 22.427">
  <g id="_2ZIQTD.tif" data-name="2ZIQTD.tif" transform="translate(-730.144 -289.681)">
    <g id="Group_1245" data-name="Group 1245" transform="translate(729.642 284.333)">
      <path id="Union_7" data-name="Union 7" d="M-5793.226-2927.209a5.428,5.428,0,0,1-2.6-3.938,5.488,5.488,0,0,1,1.97-5.219,5.467,5.467,0,0,1,3.391-1.35,5.706,5.706,0,0,1,5.144,2.447,5.318,5.318,0,0,1,1.015,2.774c.005.073.022.147.034.221v.539a11.877,11.877,0,0,1-.253,1.318,5.545,5.545,0,0,1-3.4,3.693,6.02,6.02,0,0,1-2.221.443A5.735,5.735,0,0,1-5793.226-2927.209Zm1.362-3.509c-.245.015-.375.2-.351.513a1.918,1.918,0,0,0,1.233,1.737c.382.154.508.328.462.709a.364.364,0,0,0,.374.412.388.388,0,0,0,.388-.406c.006-.172,0-.345,0-.523l.235-.064a2.073,2.073,0,0,0,1.069-3.293,2.268,2.268,0,0,0-1.75-.809,1.315,1.315,0,0,1-1.217-1.035,1.306,1.306,0,0,1,.632-1.42,1.367,1.367,0,0,1,1.568.157,1.462,1.462,0,0,1,.467,1.01.358.358,0,0,0,.414.345.378.378,0,0,0,.347-.418,2.063,2.063,0,0,0-.581-1.386,2.224,2.224,0,0,0-1.189-.628,4.249,4.249,0,0,0,0-.435.382.382,0,0,0-.373-.332c-.177,0-.392.138-.368.3.064.43-.184.574-.531.662a.361.361,0,0,0-.094.045,2.013,2.013,0,0,0-1.09,1.841,2.01,2.01,0,0,0,1.05,1.78,2.6,2.6,0,0,0,1.21.306,1.326,1.326,0,0,1,1.193,1.311,1.33,1.33,0,0,1-1.2,1.3,1.325,1.325,0,0,1-1.477-1.238c-.028-.282-.171-.447-.387-.447Zm-10.152,1.216a1.69,1.69,0,0,1-1.748-1.749q-.008-7.265,0-14.531a1.631,1.631,0,0,1,.717-1.428,4.509,4.509,0,0,1,.8-.343h7.677v2.989a2.042,2.042,0,0,0,2.152,2.132c.851,0,1.7,0,2.553,0h.245v3.941a10.977,10.977,0,0,0-1.11.005,6.774,6.774,0,0,0-3.62,1.49.578.578,0,0,1-.34.115c-1.94.006-3.88,0-5.821.005a1.355,1.355,0,0,0-.251.016.382.382,0,0,0-.334.369.38.38,0,0,0,.334.369,1.452,1.452,0,0,0,.25.018h5.258c-.057.087-.095.141-.129.2-.255.436-.518.868-.761,1.312a.256.256,0,0,1-.266.166c-1.371-.006-2.742,0-4.113,0a1.812,1.812,0,0,0-.189,0,.394.394,0,0,0-.383.373.382.382,0,0,0,.366.382,1.787,1.787,0,0,0,.232.009h4.01a6.586,6.586,0,0,0,.311,4.153.607.607,0,0,1-.081.015c-1.146,0-2.292.006-3.438.006Q-5800.856-2929.491-5802.016-2929.5Zm1.5-9.765a1.743,1.743,0,0,0-.252.014.352.352,0,0,0-.316.313c-.046.248.147.435.456.436.794,0,1.588,0,2.381,0h2.318a1.233,1.233,0,0,0,.21-.01.376.376,0,0,0,.321-.379.363.363,0,0,0-.335-.363,1.571,1.571,0,0,0-.23-.012h-4.552Zm8.1-3.928a1.236,1.236,0,0,1-1.36-1.224c-.037-.826-.008-1.656-.008-2.55l3.646,3.774h-2.279Z" transform="translate(5804.767 2953.553)" fill="#d6a141" stroke="rgba(0,0,0,0)" stroke-width="1"/>
    </g>
  </g>
</svg>
