<svg xmlns="http://www.w3.org/2000/svg" width="10.687" height="21.171" viewBox="0 0 10.687 21.171">
  <g id="Group_1062" data-name="Group 1062" transform="translate(0)">
    <g id="Group_1056" data-name="Group 1056" transform="translate(0 0)">
      <g id="Group_1051" data-name="Group 1051" transform="translate(0.876 0.433)" opacity="0.2" style="mix-blend-mode: multiply;isolation: isolate">
        <path id="Path_6411" data-name="Path 6411" d="M836.711,25.4l4.2.012s.017-5.725.03-10.37l3.117.009.4-4.147-3.338-.01,0-1.659a.884.884,0,0,1,.931-.994l2.356.006.01-3.554-3.244-.022a4.068,4.068,0,0,0-4.432,4.334l-.006,1.875-2.082-.006-.012,4.147,2.1.006C836.727,19.729,836.711,25.4,836.711,25.4Z" transform="translate(-834.642 -4.672)"/>
      </g>
      <g id="Group_1055" data-name="Group 1055">
        <g id="Group_1054" data-name="Group 1054">
          <g id="Group_1053" data-name="Group 1053">
            <g id="Group_1052" data-name="Group 1052">
              <path id="Path_6412" data-name="Path 6412" d="M834.711,24.4l4.2.012s.017-5.725.03-10.37l3.117.009.4-4.147-3.338-.01,0-1.659a.884.884,0,0,1,.931-.994l2.356.006.011-3.554-3.244-.022a4.068,4.068,0,0,0-4.432,4.334l-.006,1.875-2.082-.006-.012,4.147,2.1.006C834.727,18.729,834.711,24.4,834.711,24.4Z" transform="translate(-832.642 -3.672)" fill="#fff"/>
            </g>
          </g>
        </g>
      </g>
    </g>
  </g>
</svg>
