<svg xmlns="http://www.w3.org/2000/svg" width="27.406" height="17.385" viewBox="0 0 27.406 17.385">
  <g id="Group_1061" data-name="Group 1061" transform="translate(0 0)">
    <g id="Group_1047" data-name="Group 1047" transform="translate(1.01 0.51)" opacity="0.2" style="mix-blend-mode: multiply;isolation: isolate">
      <path id="Path_6407" data-name="Path 6407" d="M698.619,221.169c0,.053-.007.093-.007.136,0,1.029,0,3.255,0,3.255h4.474a3.842,3.842,0,0,1-1.643,2.54,4.752,4.752,0,0,1-2.429.787,4.826,4.826,0,0,1-1.813-.212,5.074,5.074,0,0,1-3.445-4.386,4.875,4.875,0,0,1,.1-1.531,4.939,4.939,0,0,1,5.5-3.882,4.475,4.475,0,0,1,2.455,1.195l2.43-2.456a10.188,10.188,0,0,0-1.48-1.1,7.9,7.9,0,0,0-3.964-1.089c-.266,0-.533.012-.8.024a6.389,6.389,0,0,0-1.378.216,8.237,8.237,0,0,0-4.483,2.887,8.325,8.325,0,0,0-1.848,4.821,8.007,8.007,0,0,0,.176,2.272,8.351,8.351,0,0,0,3.269,5.043,8.112,8.112,0,0,0,4.461,1.6,8.8,8.8,0,0,0,2.739-.275,7.275,7.275,0,0,0,4.111-2.729,9.118,9.118,0,0,0,1.433-7.114Z" transform="translate(-690.274 -214.426)"/>
      <path id="Path_6408" data-name="Path 6408" d="M734.493,225.035h-2.83v-2.944h-2.282v2.944h-2.914v2.3h2.914v2.943h2.282v-2.943h2.914v-2.3Z" transform="translate(-708.182 -218.181)"/>
    </g>
    <g id="Group_1049" data-name="Group 1049">
      <g id="Group_1048" data-name="Group 1048">
        <path id="Path_6409" data-name="Path 6409" d="M696.619,220.169c0,.053-.007.093-.007.136,0,1.029,0,3.255,0,3.255h4.474a3.842,3.842,0,0,1-1.643,2.54,4.752,4.752,0,0,1-2.429.787,4.826,4.826,0,0,1-1.813-.212,5.074,5.074,0,0,1-3.445-4.386,4.871,4.871,0,0,1,.1-1.531,4.939,4.939,0,0,1,5.5-3.882,4.475,4.475,0,0,1,2.455,1.195l2.43-2.456a10.192,10.192,0,0,0-1.48-1.1,7.9,7.9,0,0,0-3.964-1.089c-.266,0-.534.012-.8.024a6.388,6.388,0,0,0-1.378.216,8.238,8.238,0,0,0-4.483,2.887,8.324,8.324,0,0,0-1.848,4.821,8,8,0,0,0,.176,2.272,8.351,8.351,0,0,0,3.269,5.043,8.112,8.112,0,0,0,4.461,1.6,8.8,8.8,0,0,0,2.739-.275,7.274,7.274,0,0,0,4.111-2.729,9.118,9.118,0,0,0,1.433-7.114Z" transform="translate(-688.274 -213.426)" fill="#fff"/>
        <path id="Path_6410" data-name="Path 6410" d="M732.493,224.035h-2.83v-2.944h-2.282v2.944h-2.914v2.3h2.914v2.943h2.282v-2.943h2.914v-2.3Z" transform="translate(-706.182 -217.181)" fill="#fff"/>
      </g>
    </g>
  </g>
</svg>
