<svg xmlns="http://www.w3.org/2000/svg" width="20.8" height="20.8" viewBox="0 0 20.8 20.8">
  <g id="Group_952" data-name="Group 952" transform="translate(-23.6 -263.6)">
    <path id="Path_204" data-name="Path 204" d="M34,263.6A10.4,10.4,0,1,1,23.6,274,10.4,10.4,0,0,1,34,263.6Zm2.179,3.614a.241.241,0,0,0-.356.158c-.04.04-.04.079-.04.158v.552l.006.068a.559.559,0,0,0,.231.327,5.9,5.9,0,0,1,0,11.086.394.394,0,0,0-.237.394v.553l0,.057a.292.292,0,0,0,.234.258.242.242,0,0,0,.159-.039,7.082,7.082,0,0,0,4.635-8.916,7.164,7.164,0,0,0-4.635-4.655Zm-4.2-.039a.241.241,0,0,0-.159.039,7.091,7.091,0,0,0,0,13.532.241.241,0,0,0,.356-.158c.04-.039.04-.079.04-.158v-.552l-.007-.052a.588.588,0,0,0-.231-.3,5.9,5.9,0,0,1,0-11.086.394.394,0,0,0,.237-.394v-.553l0-.057a.292.292,0,0,0-.234-.258Zm2.3,2.051h-.595l-.057.006a.355.355,0,0,0-.26.31v.908l-.135.021a1.985,1.985,0,0,0-1.806,1.912c0,1.3.792,1.814,2.456,2.012,1.11.2,1.466.434,1.466,1.065s-.555,1.065-1.307,1.065c-1.03,0-1.386-.434-1.505-1.026a.29.29,0,0,0-.278-.237h-.673l-.051.005a.266.266,0,0,0-.164.093.271.271,0,0,0-.062.179v.039l.021.117a2.211,2.211,0,0,0,2.078,1.777v.947l.005.057a.355.355,0,0,0,.312.258h.594l.057-.005a.356.356,0,0,0,.26-.31v-.948l.135-.026a2.138,2.138,0,0,0,1.846-2.065c0-1.381-.832-1.854-2.5-2.051-1.189-.158-1.426-.474-1.426-1.026s.4-.908,1.188-.908a1.172,1.172,0,0,1,1.307.829.3.3,0,0,0,.277.2H36.1l.051,0a.267.267,0,0,0,.226-.272v-.039l-.024-.113a1.976,1.976,0,0,0-1.759-1.505v-.946l-.005-.057a.358.358,0,0,0-.312-.259Z" fill="#d6a141"/>
  </g>
</svg>
