<svg xmlns="http://www.w3.org/2000/svg" width="17.832" height="17.822" viewBox="0 0 17.832 17.822">
  <g id="Group_951" data-name="Group 951" transform="translate(-25.084 -361.089)">
    <path id="Path_201" data-name="Path 201" d="M35.007,361.089a.318.318,0,0,0-.318.318.312.312,0,0,0,.009.046h-.009V369a.319.319,0,0,0,.318.319h7.545v-.01a.246.246,0,0,0,.047.01.319.319,0,0,0,.318-.319A7.994,7.994,0,0,0,35.007,361.089Z" fill="#d6a141"/>
    <path id="Path_202" data-name="Path 202" d="M41.076,370.83a.318.318,0,0,0-.318-.318H33.823a.318.318,0,0,1-.318-.318v-6.91H33.5a.3.3,0,0,0,.009-.047.318.318,0,0,0-.318-.318c-.008,0-.014,0-.021,0v0l-.085,0a8,8,0,1,0,8,8c0-.025,0-.051,0-.076C41.075,370.836,41.076,370.833,41.076,370.83Z" fill="#d6a141"/>
  </g>
</svg>
