<svg xmlns="http://www.w3.org/2000/svg" width="24" height="18" viewBox="0 0 24 18">
  <g id="Group_958" data-name="Group 958" transform="translate(-22 -601)">
    <path id="Path_219" data-name="Path 219" d="M23.5,619a1.469,1.469,0,0,1-1.5-1.5c0-1.5,1.5-6,9-6s9,4.5,9,6a1.469,1.469,0,0,1-1.5,1.5Zm7.5-9a4.5,4.5,0,1,0-3.182-1.318A4.5,4.5,0,0,0,31,610Z" fill="#d6a141"/>
    <path id="Path_220" data-name="Path 220" d="M42.25,605.5a.751.751,0,0,1,.75.75v2.25h2.25a.75.75,0,0,1,0,1.5H43v2.25a.75.75,0,0,1-1.5,0V610H39.25a.75.75,0,0,1,0-1.5H41.5v-2.25a.751.751,0,0,1,.75-.75Z" fill="#d6a141" fill-rule="evenodd"/>
  </g>
</svg>
