<svg xmlns="http://www.w3.org/2000/svg" width="22.909" height="19.282" viewBox="0 0 22.909 19.282">
  <g id="Group_962" data-name="Group 962" transform="translate(-22.8 -215.99)">
    <g id="Group_953" data-name="Group 953">
      <path id="Path_206" data-name="Path 206" d="M24.164,234.864a1.4,1.4,0,0,1-1.364-1.539c0-1.539,1.364-6.155,8.182-6.155s8.182,4.616,8.182,6.155a1.4,1.4,0,0,1-1.364,1.539Zm6.818-9.232a3.872,3.872,0,0,0,2.893-1.352,5.045,5.045,0,0,0,0-6.528,3.771,3.771,0,0,0-5.785,0,5.045,5.045,0,0,0,0,6.528A3.872,3.872,0,0,0,30.982,225.632Z" fill="#d6a141"/>
      <path id="Path_207" data-name="Path 207" d="M30.3,235.068s0,0,0-.2v.2H43.936v-.2c0,.2,0,.2,0,.2h.023l.052,0a1.662,1.662,0,0,0,.176-.023,1.73,1.73,0,0,0,.531-.192,1.614,1.614,0,0,0,.786-1.524,6.136,6.136,0,0,0-1.586-3.79c-1.237-1.4-3.341-2.569-6.8-2.569s-5.564,1.174-6.8,2.569a6.136,6.136,0,0,0-1.586,3.79,1.614,1.614,0,0,0,.786,1.524,1.729,1.729,0,0,0,.531.192,1.657,1.657,0,0,0,.176.023l.052,0H30.3Zm6.818-9.232a4.074,4.074,0,0,0,3.046-1.42,5.25,5.25,0,0,0,0-6.8,3.975,3.975,0,0,0-6.092,0,5.25,5.25,0,0,0,0,6.8A4.074,4.074,0,0,0,37.118,225.836Z" fill="#d6a141"/>
      <path id="Path_207_-_Outline" data-name="Path 207 - Outline" d="M44.141,235.273H30.1v-.017l-.083-.013a1.92,1.92,0,0,1-.6-.215,1.8,1.8,0,0,1-.889-1.7,6.334,6.334,0,0,1,1.637-3.926,7.229,7.229,0,0,1,2.641-1.861,11.119,11.119,0,0,1,4.313-.777,11.119,11.119,0,0,1,4.313.777,7.229,7.229,0,0,1,2.64,1.861,6.334,6.334,0,0,1,1.637,3.926,1.8,1.8,0,0,1-.89,1.7,1.917,1.917,0,0,1-.594.215l-.084.014Zm-.2-.409h.022l.034,0a1.471,1.471,0,0,0,.158-.021,1.508,1.508,0,0,0,.467-.169,1.416,1.416,0,0,0,.682-1.346,5.9,5.9,0,0,0-1.534-3.654,6.822,6.822,0,0,0-2.493-1.755,10.715,10.715,0,0,0-4.155-.745,10.715,10.715,0,0,0-4.155.745,6.823,6.823,0,0,0-2.493,1.755,5.9,5.9,0,0,0-1.534,3.654,1.415,1.415,0,0,0,.681,1.346,1.512,1.512,0,0,0,.469.169,1.433,1.433,0,0,0,.152.02l.039,0H43.937Zm-6.818-8.823a4.306,4.306,0,0,1-3.2-1.489,5.455,5.455,0,0,1,0-7.071,4.179,4.179,0,0,1,6.4,0,5.454,5.454,0,0,1,0,7.071A4.306,4.306,0,0,1,37.118,226.041Zm0-9.641a3.846,3.846,0,0,0-2.893,1.352,5.046,5.046,0,0,0,0,6.529,3.772,3.772,0,0,0,5.785,0,5.046,5.046,0,0,0,0-6.529A3.846,3.846,0,0,0,37.118,216.4Z" fill="#d6a141"/>
    </g>
  </g>
</svg>
