<svg id="Icon_feather-log-out" data-name="Icon feather-log-out" xmlns="http://www.w3.org/2000/svg" width="15.71" height="15.71" viewBox="0 0 15.71 15.71">
  <path id="Path_229" data-name="Path 229" d="M9.044,19.21H5.961A2.464,2.464,0,0,1,3.5,16.749V5.961A2.464,2.464,0,0,1,5.961,3.5H9.044a.92.92,0,0,1,0,1.84H5.961a.622.622,0,0,0-.621.621V16.749a.622.622,0,0,0,.621.621H9.044a.92.92,0,1,1,0,1.84Z" transform="translate(-3.5 -3.5)" fill="#d6a141"/>
  <path id="Path_230" data-name="Path 230" d="M23.92,19.046a.92.92,0,0,1-.651-1.571l3.2-3.2-3.2-3.2a.92.92,0,0,1,1.3-1.3l3.853,3.853a.92.92,0,0,1,0,1.3l-3.853,3.853A.917.917,0,0,1,23.92,19.046Z" transform="translate(-12.983 -6.418)" fill="#d6a141"/>
  <path id="Path_231" data-name="Path 231" d="M22.667,18.84H13.42a.92.92,0,0,1,0-1.84h9.247a.92.92,0,1,1,0,1.84Z" transform="translate(-7.877 -10.065)" fill="#d6a141"/>
</svg>
